# xmcd
#
# Track frame offsets:
#	150
#	10210
#	26838
#	37569
#	53548
#	66993
#	81421
#	93313
#	102735
#
# Disc length: 1914 seconds
#
# Revision: 1
# Processed by: cddbd v1.4PL0 Copyright (c) Steve Scherf et al.
# Submitted via: audiograbber 1.80
#
DISCID=6b077809
DTITLE=Screamin' Jay Hawkins - I Put A Spell On You-LP
DYEAR=1900
DGENRE=
TTITLE0=i got a spell on you
TTITLE1=i've got you under my skin
TTITLE2=time after time
TTITLE3=ebb tide
TTITLE4=move me
TTITLE5=africa gone funky
TTITLE6=ashes
TTITLE7=ashes
TTITLE8=sweet ginny
EXTD=
EXTT0=
EXTT1=
EXTT2=
EXTT3=
EXTT4=
EXTT5=
EXTT6=
EXTT7=
EXTT8=
PLAYORDER=
